<svg xmlns="http://www.w3.org/2000/svg" width="16" height="16" viewBox="0 0 16 16" class="ZDI ZDI--HeartFill16" fill="currentColor"><path fill-rule="evenodd" d="M8.005 2.935a4.396 4.396 0 0 0-2.2-.987c-1.187-.165-2.527.19-3.636 1.521C1.222 4.606.923 5.862 1.072 7.097c.147 1.212.72 2.371 1.458 3.38a12.748 12.748 0 0 0 2.597 2.604c.914.686 1.863 1.205 2.647 1.417.15.04.305.04.456 0 .783-.212 1.732-.73 2.646-1.417a12.748 12.748 0 0 0 2.598-2.604c.737-1.009 1.31-2.168 1.457-3.38.15-1.235-.15-2.491-1.097-3.628-1.086-1.303-2.426-1.65-3.609-1.496a4.448 4.448 0 0 0-2.22.962Z" clip-rule="evenodd"></path></svg>