<svg class="icon" style="width: 1.125em;height: 1em;vertical-align: middle;fill: #555555;overflow: hidden;" viewBox="0 0 1152 1024" version="1.1" xmlns="http://www.w3.org/2000/svg" p-id="688"><path d="M1087.6 575.2c34 0 64-28 64-64.2 2-18-6-34-22-48L1024 370V128c0-35.4-28.6-64-64-64h-64c-35.4 0-64 28.6-64 64v73.4L619 14C607 4 591 0 577 0s-30 2-44 16L20 463C6 477 0 493 0 511c0 36 28 64.2 64 64.2h64v139.4c-0.2 1.8-0.2 3.6-0.2 5.6V944c0 44.2 35.8 80 80 80h32c2.4 0 4.8-0.2 7.2-0.4 3 0.2 6 0.4 9 0.4h112c44.2 0 80-35.8 80-80V768c0-35.4 28.6-64 64-64h128c35.4 0 64 28.6 64 64v176c0 44.2 35.8 80 80 80h113c2.8 0 5.6 0 8.4-0.2 2.2 0.2 4.4 0.2 6.6 0.2h32c44.2 0 80-35.8 80-80v-32.4c0.6-5.2 1-10.6 1-16.2l-1.4-320.4h64z" p-id="689"></path></svg>