<svg class="icon" style="width: 1em;height: 1em;vertical-align: middle;fill: currentColor;overflow: hidden;" viewBox="0 0 1024 1024" version="1.1" xmlns="http://www.w3.org/2000/svg" p-id="708"><path d="M665.6 143.36a30.72 30.72 0 0 1 30.72 30.72v30.72H768a81.92 81.92 0 0 1 81.92 81.92v512A81.92 81.92 0 0 1 768 880.64H256a81.92 81.92 0 0 1-81.92-81.92v-512A81.92 81.92 0 0 1 256 204.8h71.68v-30.72a30.72 30.72 0 0 1 61.44 0v30.72h245.76v-30.72a30.72 30.72 0 0 1 30.72-30.72z m122.88 286.72H235.52v368.64a20.48 20.48 0 0 0 20.48 20.48h512a20.48 20.48 0 0 0 20.48-20.48V430.08z m-135.872 95.68a30.72 30.72 0 0 1 0 43.456l-144.832 144.768a30.72 30.72 0 0 1-43.456 0l-72.384-72.32a30.72 30.72 0 0 1 43.456-43.52l50.688 50.688 123.072-123.072a30.72 30.72 0 0 1 43.456 0zM327.68 266.24H256a20.48 20.48 0 0 0-20.48 20.48v81.92h552.96V286.72a20.608 20.608 0 0 0-20.48-20.48h-71.68v30.72a30.72 30.72 0 0 1-61.44 0v-30.72H389.12v30.72a30.72 30.72 0 0 1-61.44 0v-30.72z" fill="#606266" p-id="709"></path></svg>